<svg width="249" height="29" viewBox="0 0 249 29" fill="none" xmlns="http://www.w3.org/2000/svg">
<path fill-rule="evenodd" clip-rule="evenodd" d="M248.013 23.915C248.046 23.8656 248.078 23.811 248.109 23.7533C248.118 23.7384 248.127 23.7237 248.135 23.7089L248.133 23.7084C248.246 23.4959 248.345 23.2515 248.394 23.0792L243.356 22.3063C243.28 22.4328 243.013 22.7406 242.754 22.9799C241.674 23.9293 240.209 24.4927 238.582 24.4927C235.673 24.4927 233.354 22.6508 232.607 20.0251H248.843C248.921 19.4372 249 18.8102 249 18.2224C249 12.0696 244.322 7.44531 238.268 7.44531C232.174 7.44531 227.536 12.0696 227.536 18.2224C227.536 24.3751 232.292 28.9994 238.582 28.9994C242.698 28.9994 246.137 27.0107 248.013 23.915ZM238.189 11.9521C240.902 11.9521 243.142 13.6764 243.929 16.2237H232.646C233.393 13.6764 235.634 11.9521 238.189 11.9521Z" fill="#1C1C1C"/>
<path fill-rule="evenodd" clip-rule="evenodd" d="M220.219 28.4167H225.133V0.105469H220.219V28.4167Z" fill="#1C1C1C"/>
<path fill-rule="evenodd" clip-rule="evenodd" d="M211.557 28.416H216.471V8.03758H211.557V28.416ZM210.889 3.09971C210.889 4.90241 212.226 6.23486 213.995 6.23486C215.803 6.23486 217.14 4.90241 217.14 3.09971C217.14 1.33621 215.803 0.00390625 213.995 0.00390625C212.226 0.00390625 210.889 1.33621 210.889 3.09971Z" fill="#1C1C1C"/>
<path fill-rule="evenodd" clip-rule="evenodd" d="M176.051 28.4116H180.965V16.4197C180.965 13.9899 182.812 12.1088 185.25 12.1088C187.687 12.1088 189.495 13.9899 189.495 16.4197V28.4116H194.409V16.4197C194.409 13.9899 196.257 12.1088 198.694 12.1088C201.092 12.1088 202.94 13.9899 202.94 16.4197V28.4116H207.815V15.0088C207.815 10.698 204.394 7.44531 199.677 7.44531C195.785 7.44531 193.898 9.63991 193.151 10.7764C191.815 8.73856 189.495 7.44531 186.704 7.44531C183.599 7.44531 181.83 9.05206 180.965 10.2277V8.03314H176.051V28.4116Z" fill="#1C1C1C"/>
<path fill-rule="evenodd" clip-rule="evenodd" d="M161.658 22.3373L161.659 22.3372C162.012 23.748 163.349 24.767 165.668 24.767C167.477 24.767 168.971 24.0616 168.971 22.7683C168.971 21.9453 168.302 21.3575 166.691 20.8088L162.484 19.4764C159.025 18.3399 157.61 16.6548 157.61 13.794C157.61 9.2872 161.148 7.44531 165.511 7.44531C169.736 7.44531 172.45 9.32803 173.204 12.2936H173.205C173.371 12.9015 173.428 13.6869 173.416 13.9551L168.806 14.2119C168.801 14.0326 168.752 13.6757 168.623 13.3855C168.168 12.396 167.023 11.6778 165.157 11.6778C163.624 11.6778 162.288 12.2264 162.288 13.4413C162.288 14.1859 162.838 14.6561 164.096 15.0872L168.302 16.498C172.076 17.8305 173.649 19.6724 173.649 22.6115C173.649 27.0399 169.993 28.9993 165.551 28.9993C160.782 28.9993 157.878 26.8545 157.148 23.4864L157.147 23.4815C157.113 23.3245 157.084 23.1653 157.059 23.0035L157.06 23.0033C156.995 22.5905 156.981 22.3088 156.984 21.9752L161.587 21.765C161.589 21.8707 161.608 22.1316 161.658 22.3373Z" fill="#1C1C1C"/>
<path fill-rule="evenodd" clip-rule="evenodd" d="M133.941 18.2224C133.941 12.0696 138.58 7.44531 144.752 7.44531C150.924 7.44531 155.602 12.0696 155.602 18.2224C155.602 24.3751 150.924 28.9994 144.752 28.9994C138.58 28.9994 133.941 24.3751 133.941 18.2224ZM144.752 12.344C141.529 12.344 139.013 14.8913 139.013 18.2224C139.013 21.5535 141.529 24.1008 144.752 24.1008C148.015 24.1008 150.492 21.5535 150.492 18.2224C150.492 14.8913 148.015 12.344 144.752 12.344Z" fill="#1C1C1C"/>
<path fill-rule="evenodd" clip-rule="evenodd" d="M130.931 23.915C130.963 23.8656 130.995 23.811 131.027 23.7533C131.035 23.7384 131.044 23.7237 131.052 23.7089L131.051 23.7084C131.163 23.4959 131.263 23.2515 131.311 23.0792L126.274 22.3063C126.197 22.4328 125.931 22.7406 125.672 22.9799C124.591 23.9293 123.126 24.4927 121.5 24.4927C118.591 24.4927 116.271 22.6508 115.524 20.0251H131.76C131.839 19.4372 131.917 18.8102 131.917 18.2224C131.917 12.0696 127.239 7.44531 121.185 7.44531C115.092 7.44531 110.453 12.0696 110.453 18.2224C110.453 24.3751 115.21 28.9994 121.5 28.9994C125.616 28.9994 129.054 27.0107 130.931 23.915ZM121.107 11.9521C123.819 11.9521 126.06 13.6764 126.846 16.2237H115.564C116.311 13.6764 118.551 11.9521 121.107 11.9521Z" fill="#1C1C1C"/>
<path fill-rule="evenodd" clip-rule="evenodd" d="M103.177 0.109375V9.67938C101.486 8.26856 99.3634 7.44559 96.9655 7.44559C91.3046 7.44559 87.0195 12.0699 87.0195 18.2226C87.0195 24.3754 91.3046 28.9996 96.9655 28.9996C99.3634 28.9996 101.486 28.1767 103.177 26.7659V28.4118H108.051V0.109375H103.177ZM103.098 18.2226C103.098 14.8916 100.7 12.3442 97.5943 12.3442C94.528 12.3442 92.0908 14.8916 92.0908 18.2226C92.0908 21.5537 94.528 24.101 97.5943 24.101C100.7 24.101 103.098 21.5537 103.098 18.2226Z" fill="#1C1C1C"/>
<path fill-rule="evenodd" clip-rule="evenodd" d="M79.6907 28.4122H84.6047V8.03376H79.6907V28.4122ZM79.0225 3.09592C79.0225 4.89862 80.3591 6.23106 82.1281 6.23106C83.9364 6.23106 85.273 4.89862 85.273 3.09592C85.273 1.33241 83.9364 0 82.1281 0C80.3591 0 79.0225 1.33241 79.0225 3.09592Z" fill="#1C1C1C"/>
<path fill-rule="evenodd" clip-rule="evenodd" d="M56.7021 8.03516L65.1149 28.4136H69.7929L78.2057 8.03516H73.1344L67.4736 22.2217L61.7734 8.03516H56.7021Z" fill="#1C1C1C"/>
<path fill-rule="evenodd" clip-rule="evenodd" d="M22.4909 27.2968C13.0644 27.2968 4.86056 22.4758 0 14.4656L6.4532 10.5742C10.0061 16.4293 15.815 19.7783 22.4909 19.7783C29.1667 19.7783 34.9756 16.4294 38.5285 10.5742L44.9817 14.4656C40.1211 22.4758 31.9174 27.2968 22.4909 27.2968Z" fill="#1C1C1C"/>
</svg>
